<?xml version="1.0" encoding="UTF-8" standalone="no"?>
<!-- Created with Inkscape (http://www.inkscape.org/) -->

<svg
   width="152"
   height="152"
   viewBox="0 0 40.216667 40.216667"
   version="1.1"
   id="svg1"
   xml:space="preserve"
   inkscape:version="1.4.4 (dcaf3e7d9e, 2026-05-05)"
   sodipodi:docname="logo.svg"
   xmlns:inkscape="http://www.inkscape.org/namespaces/inkscape"
   xmlns:sodipodi="http://sodipodi.sourceforge.net/DTD/sodipodi-0.dtd"
   xmlns:xlink="http://www.w3.org/1999/xlink"
   xmlns="http://www.w3.org/2000/svg"
   xmlns:svg="http://www.w3.org/2000/svg"><sodipodi:namedview
     id="namedview1"
     pagecolor="#505050"
     bordercolor="#eeeeee"
     borderopacity="1"
     inkscape:showpageshadow="0"
     inkscape:pageopacity="0"
     inkscape:pagecheckerboard="0"
     inkscape:deskcolor="#505050"
     inkscape:document-units="mm"
     inkscape:zoom="2.0222363"
     inkscape:cx="-25.466856"
     inkscape:cy="-0.7417531"
     inkscape:window-width="2560"
     inkscape:window-height="1386"
     inkscape:window-x="0"
     inkscape:window-y="0"
     inkscape:window-maximized="1"
     inkscape:current-layer="layer1" /><defs
     id="defs1" /><g
     inkscape:label="Layer 1"
     inkscape:groupmode="layer"
     id="layer1"><g
       id="g4"
       transform="matrix(0.99999525,0,0,1.0006482,9.5348105e-5,-9.5390123e-5)"><g
         id="g22"
         transform="matrix(0.33040863,0,0,0.33040863,-117.77955,-5.2456169)"
         style="fill:#3a0000;fill-opacity:1"
         inkscape:label="rust-lock"><path
           style="fill:#3a0000;fill-opacity:1;stroke-width:0.295349"
           d="m 392.87626,114.81988 c -1.55401,-0.34457 -2.94072,-1.63585 -3.47465,-3.23554 l -0.21089,-0.63183 V 90.773116 66.360391 l 0.21701,-0.654889 c 0.41291,-1.246061 1.30764,-2.308021 2.41528,-2.86668 0.93696,-0.472574 1.06634,-0.489268 4.07045,-0.525127 l 2.75955,-0.03294 0.0299,-1.545872 c 0.12244,-6.33042 0.0379,-6.413395 0.52563,-8.414307 1.07742,-4.420236 3.52397,-8.195774 7.06761,-10.906786 7.54559,-5.772649 18.0317,-5.002946 24.70451,1.813369 2.908,2.970537 4.68483,6.567609 5.38385,10.899235 0.11606,0.719212 0.13769,1.596436 0.16294,6.608489 l 0.0291,1.545872 2.75955,0.03294 c 2.19399,0.02619 2.84135,0.05796 3.15862,0.155048 1.72911,0.529083 2.93056,1.776643 3.40555,3.536239 0.13153,0.487293 0.13857,5.763611 0.13857,24.768134 0,18.696184 -0.009,20.053934 -0.13305,20.512464 -0.48087,1.77461 -1.89813,3.17195 -3.58816,3.5377 -0.77468,0.16766 -48.66482,0.16436 -49.42144,-0.003 z M 441.26391,90.773116 V 67.189682 h -23.65909 -23.65909 v 23.583434 19.350104 h 23.65909 23.65909 z m -9.45244,-29.834695 c -0.10214,-4.759318 -0.048,-5.693137 -0.15656,-6.298898 -0.76086,-4.244599 -2.92012,-7.618571 -6.35702,-9.933199 -2.48527,-1.673733 -5.82284,-2.542592 -8.75618,-2.279462 -3.12747,0.280547 -5.96267,1.490356 -8.22275,3.508744 -2.5095,2.24114 -4.08197,5.060072 -4.72322,8.467222 -0.15477,0.822356 -0.16522,1.169466 -0.19547,6.496101 l -0.032,1.393993 h 14.23614 14.23613 z"
           id="path21"
           sodipodi:nodetypes="sscccssscsssssscsssssssscccccccccssssssscccs"
           inkscape:label="lock" /><path
           style="fill:#3a0000;fill-opacity:1"
           d="m 417.3242,107.75293 c -0.0659,-0.0555 -0.33331,-0.45609 -0.59417,-0.89024 -0.26085,-0.43415 -0.49441,-0.8023 -0.519,-0.81812 -0.0246,-0.0158 -0.15037,-0.0276 -0.27951,-0.0262 l -0.23479,0.003 -0.60653,0.67614 c -0.3336,0.37188 -0.65734,0.70744 -0.71944,0.74567 -0.2145,0.1321 -0.58582,0.0537 -0.69593,-0.14699 -0.0265,-0.0482 -0.19174,-0.48384 -0.3673,-0.96809 l -0.3192,-0.88046 -0.24069,-0.072 -0.2407,-0.072 -0.5182,0.38284 c -1.08086,0.79854 -1.08014,0.79808 -1.25602,0.79793 -0.1949,-1.8e-4 -0.39081,-0.1105 -0.47075,-0.26508 -0.0319,-0.0617 -0.12106,-0.5323 -0.19813,-1.04581 -0.0771,-0.5135 -0.14427,-0.93628 -0.14934,-0.9395 -0.12352,-0.0786 -0.40388,-0.21474 -0.44213,-0.21474 -0.0282,0 -0.42662,0.17803 -0.88531,0.39563 -0.64026,0.30373 -0.87298,0.39614 -1.0018,0.39783 -0.19363,0.003 -0.34095,-0.0892 -0.45448,-0.28311 -0.0714,-0.122 -0.0725,-0.16663 -0.026,-1.1072 l 0.0484,-0.98007 -0.16966,-0.14902 c -0.0933,-0.082 -0.20106,-0.14978 -0.23944,-0.1507 -0.0384,-9.2e-4 -0.45602,0.0952 -0.92807,0.21355 -0.47205,0.11837 -0.91256,0.21523 -0.97892,0.21523 -0.26554,0 -0.50763,-0.23842 -0.50792,-0.50024 -8e-5,-0.0707 0.0967,-0.51471 0.21507,-0.98676 0.11837,-0.47205 0.21447,-0.88968 0.21356,-0.92806 -9.2e-4,-0.0384 -0.0687,-0.14613 -0.1507,-0.239449 L 404.45807,99.74725 403.478,99.7957 c -0.94056,0.04649 -0.98519,0.04545 -1.1072,-0.026 -0.19377,-0.113469 -0.28563,-0.260862 -0.28324,-0.454477 0.002,-0.129195 0.0931,-0.359126 0.39784,-0.999281 0.21767,-0.457311 0.39576,-0.855701 0.39576,-0.88531 0,-0.04018 -0.13415,-0.317958 -0.21475,-0.444654 -0.003,-0.0051 -0.426,-0.07227 -0.9395,-0.149339 -0.5135,-0.07707 -0.98411,-0.166226 -1.0458,-0.198126 -0.15469,-0.07999 -0.26491,-0.27584 -0.26508,-0.471041 -1.6e-4,-0.174094 -0.0139,-0.152619 0.83345,-1.302607 l 0.34445,-0.467478 -0.0716,-0.242957 -0.0716,-0.242957 -0.87944,-0.318861 c -0.48369,-0.175373 -0.91888,-0.340503 -0.96708,-0.366955 -0.20066,-0.110116 -0.27908,-0.481435 -0.14699,-0.695937 0.0382,-0.0621 0.37379,-0.385841 0.74567,-0.719436 l 0.67615,-0.606536 0.003,-0.234789 c 10e-4,-0.129133 -0.0104,-0.254911 -0.0262,-0.279505 -0.0158,-0.0246 -0.38396,-0.258147 -0.81811,-0.519006 -0.43415,-0.260859 -0.83476,-0.528236 -0.89024,-0.59417 -0.14222,-0.169018 -0.14199,-0.450321 5e-4,-0.619667 0.0558,-0.06626 0.45968,-0.335432 0.8976,-0.598151 0.52612,-0.315631 0.8035,-0.504765 0.81767,-0.557538 0.0118,-0.04393 0.0203,-0.167912 0.0188,-0.275524 l -0.003,-0.195657 -0.67615,-0.606536 c -0.37188,-0.333595 -0.70743,-0.657341 -0.74567,-0.719436 -0.13209,-0.214502 -0.0537,-0.585821 0.14699,-0.695937 0.0482,-0.02645 0.48339,-0.191582 0.96708,-0.366956 l 0.87944,-0.31886 0.0716,-0.242957 0.0716,-0.242957 -0.34445,-0.467478 c -0.84735,-1.149988 -0.83361,-1.128513 -0.83345,-1.302607 1.7e-4,-0.195201 0.11039,-0.391047 0.26508,-0.471041 0.0617,-0.0319 0.5323,-0.121057 1.0458,-0.198126 0.5135,-0.07707 0.93628,-0.144272 0.9395,-0.149339 0.0806,-0.126696 0.21475,-0.404469 0.21475,-0.444654 0,-0.02961 -0.17809,-0.427999 -0.39576,-0.88531 -0.3047,-0.640155 -0.39624,-0.870086 -0.39784,-0.999281 -0.002,-0.193615 0.0895,-0.341009 0.28324,-0.454477 0.12202,-0.07145 0.16661,-0.07249 1.1083,-0.02594 l 0.98117,0.0485 0.12956,-0.15015 c 0.0713,-0.08258 0.1396,-0.186259 0.15188,-0.230394 0.0123,-0.04413 -0.0756,-0.470567 -0.19518,-0.947628 -0.11963,-0.477061 -0.21751,-0.921674 -0.21751,-0.988029 0,-0.265545 0.23842,-0.507628 0.50023,-0.507926 0.0707,-8e-5 0.51471,0.0967 0.98676,0.215076 0.47205,0.118373 0.88968,0.214472 0.92807,0.213555 0.0384,-9.18e-4 0.14613,-0.06873 0.23944,-0.150698 l 0.16966,-0.149029 -0.0484,-0.980068 c -0.0465,-0.940564 -0.0454,-0.985192 0.026,-1.107199 0.11353,-0.193881 0.26085,-0.285654 0.45448,-0.283113 0.12882,0.0017 0.36154,0.09411 1.0018,0.397836 0.45869,0.217598 0.85708,0.395633 0.88531,0.395633 0.0383,0 0.31861,-0.136171 0.44213,-0.214744 0.005,-0.0032 0.0723,-0.426 0.14934,-0.939504 0.0771,-0.513503 0.16623,-0.984114 0.19813,-1.045803 0.0799,-0.154586 0.27585,-0.264904 0.47075,-0.265079 0.17588,-1.59e-4 0.17516,-6.12e-4 1.25602,0.797921 l 0.5182,0.382842 0.2407,-0.07196 0.24069,-0.07196 0.3192,-0.880456 c 0.17556,-0.484251 0.34084,-0.919894 0.3673,-0.968097 0.10998,-0.200421 0.48094,-0.279001 0.69593,-0.14742 0.0621,0.038 0.32903,0.308943 0.59318,0.602089 0.26416,0.293147 0.54873,0.604786 0.63239,0.692533 l 0.1521,0.159538 0.24085,-0.0284 c 0.13246,-0.01562 0.24673,-0.03458 0.25393,-0.04215 0.007,-0.0076 0.22639,-0.368962 0.4871,-0.803113 0.26071,-0.434151 0.52796,-0.834758 0.59389,-0.890239 0.14384,-0.121025 0.41194,-0.137267 0.58439,-0.0354 0.0744,0.04395 0.27543,0.339089 0.61148,0.89773 0.32937,0.547535 0.52779,0.839553 0.58,0.853581 0.0436,0.01173 0.1674,0.02014 0.27501,0.0187 l 0.19566,-0.0026 0.60654,-0.676146 c 0.33359,-0.371881 0.65734,-0.707433 0.71943,-0.745672 0.2145,-0.132094 0.58582,-0.05367 0.69594,0.146991 0.0265,0.0482 0.19155,0.4833 0.36688,0.966884 l 0.31879,0.879242 0.23103,0.06933 c 0.12707,0.03813 0.24961,0.06256 0.27232,0.05428 0.0227,-0.0083 0.29565,-0.205243 0.60654,-0.437698 0.93139,-0.696416 0.96979,-0.720491 1.14892,-0.720327 0.19243,1.76e-4 0.38888,0.111359 0.46838,0.265079 0.0319,0.06169 0.12105,0.5323 0.19812,1.045803 0.0771,0.513504 0.14427,0.93628 0.14934,0.939504 0.1267,0.08059 0.40447,0.214744 0.44465,0.214744 0.0296,0 0.428,-0.178093 0.88531,-0.395763 0.64016,-0.3047 0.87009,-0.39624 0.99929,-0.397836 0.19361,-0.0024 0.341,0.08947 0.45447,0.283243 0.0715,0.122016 0.0725,0.166607 0.0259,1.108298 l -0.0485,0.981168 0.15015,0.129559 c 0.0826,0.07126 0.18778,0.139985 0.23376,0.152728 0.0463,0.01283 0.47095,-0.0743 0.95136,-0.195184 0.47726,-0.120094 0.92389,-0.218286 0.9925,-0.218206 0.25823,3.03e-4 0.49651,0.244056 0.49651,0.507926 0,0.06636 -0.0969,0.506869 -0.21523,0.97892 -0.11837,0.472052 -0.21447,0.88968 -0.21355,0.928063 9.2e-4,0.03838 0.0687,0.146135 0.1507,0.239448 l 0.14902,0.169662 0.98007,-0.04845 c 0.94057,-0.0465 0.9852,-0.04545 1.1072,0.026 0.19378,0.113468 0.28564,0.260862 0.28324,0.454477 -0.002,0.129195 -0.0931,0.359126 -0.39783,0.999281 -0.21767,0.457311 -0.39576,0.855701 -0.39576,0.88531 0,0.04019 0.13415,0.317958 0.21474,0.444654 0.003,0.0051 0.426,0.07227 0.9395,0.149339 0.51351,0.07707 0.98412,0.166226 1.04581,0.198126 0.15486,0.08009 0.2649,0.275821 0.26508,0.471528 1.3e-4,0.144354 -0.0421,0.220351 -0.36946,0.665233 -0.20328,0.276244 -0.46837,0.637629 -0.58909,0.803079 l -0.21949,0.300817 0.0716,0.243192 0.0716,0.243191 0.87944,0.31886 c 0.4837,0.175374 0.91888,0.340504 0.96708,0.366956 0.20066,0.110116 0.27909,0.481435 0.147,0.695937 -0.0382,0.06209 -0.3738,0.385841 -0.74568,0.719436 l -0.67614,0.606536 -0.003,0.241776 c -0.002,0.152404 0.016,0.260891 0.0487,0.293486 0.0285,0.02844 0.41281,0.268601 0.854,0.533692 0.86155,0.517669 0.93333,0.584426 0.93333,0.868049 0,0.283624 -0.0718,0.350381 -0.93333,0.86805 -0.44119,0.26509 -0.82549,0.505252 -0.854,0.533692 -0.0327,0.0326 -0.0507,0.141082 -0.0487,0.293486 l 0.003,0.241776 0.67614,0.606536 c 0.37188,0.333595 0.70744,0.657341 0.74568,0.719436 0.13209,0.214502 0.0537,0.585821 -0.147,0.695937 -0.0482,0.02645 -0.48384,0.191735 -0.96809,0.367295 l -0.88046,0.3192 -0.072,0.240881 -0.072,0.240882 0.22091,0.302788 c 0.1215,0.166533 0.38723,0.528805 0.59051,0.805049 0.32738,0.444882 0.36959,0.520879 0.36946,0.665233 -1.8e-4,0.195707 -0.11022,0.391443 -0.26508,0.471528 -0.0617,0.0319 -0.5323,0.121057 -1.04581,0.198126 -0.5135,0.07707 -0.93612,0.144272 -0.93915,0.149339 -0.1347,0.22523 -0.21509,0.388526 -0.21509,0.43691 0,0.03387 0.17809,0.435743 0.39576,0.893054 0.3047,0.640155 0.39624,0.870086 0.39783,0.999281 0.002,0.193615 -0.0895,0.341008 -0.28324,0.454477 -0.122,0.07144 -0.16663,0.07249 -1.1072,0.026 l -0.98007,-0.04845 -0.14902,0.169661 c -0.082,0.09332 -0.14978,0.201064 -0.1507,0.239444 -9.2e-4,0.0384 0.0952,0.45601 0.21355,0.92806 0.11837,0.47205 0.21516,0.9161 0.21508,0.98676 -3e-4,0.26014 -0.24229,0.50024 -0.5042,0.50024 -0.0643,0 -0.5074,-0.0983 -0.98466,-0.21836 -0.48041,-0.12088 -0.90506,-0.20801 -0.95136,-0.19518 -0.046,0.0127 -0.15118,0.0815 -0.23376,0.15273 l -0.15015,0.12956 0.0485,0.98116 c 0.0466,0.9417 0.0455,0.98629 -0.0259,1.1083 -0.11346,0.19376 -0.26086,0.28563 -0.45447,0.28326 -0.12985,-0.002 -0.36258,-0.0951 -1.0287,-0.41319 l -0.86089,-0.41113 -0.21522,0.11957 c -0.11838,0.0658 -0.21937,0.12231 -0.22444,0.12566 -0.005,0.003 -0.0723,0.42622 -0.14934,0.93972 -0.0771,0.51351 -0.16622,0.98412 -0.19812,1.04581 -0.0795,0.15372 -0.27595,0.2649 -0.46838,0.26508 -0.17913,1.6e-4 -0.21753,-0.0239 -1.14892,-0.72033 -0.31089,-0.23246 -0.58383,-0.42942 -0.60654,-0.4377 -0.0227,-0.008 -0.14525,0.0161 -0.27232,0.0543 l -0.23103,0.0693 -0.31879,0.87924 c -0.17533,0.48358 -0.34043,0.91868 -0.36688,0.96688 -0.11012,0.20066 -0.48144,0.27909 -0.69594,0.14699 -0.0621,-0.0382 -0.38584,-0.37379 -0.71943,-0.74567 l -0.60654,-0.67614 -0.24178,-0.003 c -0.1524,-0.002 -0.26089,0.016 -0.29348,0.0487 -0.0284,0.0285 -0.2686,0.41281 -0.53369,0.854 -0.32294,0.53746 -0.51862,0.8238 -0.59301,0.86775 -0.17262,0.10196 -0.44069,0.0858 -0.58458,-0.0353 z m 1.15086,-4.87039 c 1.64604,-0.11077 3.22762,-0.49236 4.65664,-1.12351 l 0.35218,-0.15555 0.20066,-1.26207 c 0.11037,-0.694133 0.22331,-1.330669 0.25099,-1.414521 0.10613,-0.321593 0.47309,-0.617012 0.83968,-0.675986 0.10569,-0.017 0.5557,0.03866 1.38542,0.171357 0.67589,0.108095 1.2683,0.196536 1.31647,0.196536 0.0567,0 0.16371,-0.08223 0.30388,-0.233638 0.23032,-0.248773 0.7421,-0.880018 0.76389,-0.942205 0.008,-0.02333 -1.0605,-0.03723 -2.86289,-0.03723 -2.70699,0 -2.88984,-0.0043 -3.1128,-0.07372 -0.3314,-0.103142 -0.54958,-0.240788 -0.77823,-0.490973 -0.4535,-0.496195 -0.65803,-1.061847 -1.04807,-2.89843 -0.44306,-2.086306 -0.89835,-2.853968 -1.87488,-3.16121 -0.26865,-0.08453 -0.32302,-0.08669 -2.17342,-0.08669 h -1.89787 v 1.232638 1.232638 l 1.54224,0.01024 c 1.05897,0.007 1.55864,0.02386 1.5946,0.05371 0.0726,0.06029 0.0779,4.06238 0.005,4.134848 -0.0361,0.03608 -1.3409,0.04696 -5.63492,0.04696 -3.07337,0 -5.58796,0.01068 -5.58796,0.02372 0,0.04288 0.49324,0.655411 0.75514,0.93778 l 0.25665,0.276707 1.16698,-0.19124 c 1.40594,-0.230404 1.63497,-0.242025 1.91586,-0.09721 0.23584,0.121592 0.45042,0.356823 0.52124,0.571402 0.0277,0.08385 0.14061,0.718989 0.25098,1.411417 l 0.20067,1.25895 0.33261,0.14948 c 1.93253,0.86849 4.23081,1.279 6.35885,1.1358 z m -8.64004,-1.23578 c 0.10173,-0.0629 0.24232,-0.18956 0.31243,-0.28147 0.43042,-0.56433 0.16699,-1.41087 -0.50891,-1.635367 -0.82679,-0.274616 -1.62711,0.533687 -1.33846,1.351817 0.16727,0.4741 0.54547,0.72005 1.06671,0.6937 0.22939,-0.0116 0.31844,-0.0361 0.46823,-0.12868 z m 16.65496,0.0109 c 0.36041,-0.21122 0.55853,-0.58612 0.52746,-0.9981 -0.0787,-1.043532 -1.44525,-1.349761 -1.97813,-0.44328 -0.0947,0.16118 -0.10757,0.22299 -0.10757,0.51851 0,0.30471 0.0108,0.35285 0.11739,0.52446 0.23638,0.38046 0.5382,0.53888 0.98393,0.51642 0.21488,-0.0108 0.32061,-0.0381 0.45692,-0.11801 z m -17.70955,-12.929319 0.01,-4.431628 h -1.15454 c -0.635,0 -1.15483,0.01321 -1.15517,0.02935 -3.5e-4,0.01614 0.0913,0.209647 0.20371,0.430011 0.18679,0.366251 0.20434,0.423414 0.20434,0.665585 0,0.315293 -0.0962,0.545581 -0.31871,0.762548 -0.0983,0.09587 -0.53353,0.339982 -1.30627,0.732656 l -1.15886,0.588884 -0.0244,0.177793 c -0.15561,1.135352 -0.10338,2.740101 0.13176,4.048136 0.0738,0.410489 0.2979,1.3474 0.33939,1.418851 0.009,0.01633 0.96259,0.02513 2.11803,0.01957 l 2.10079,-0.01012 z m 19.91581,4.287551 c 0.2419,-0.08955 0.56099,-0.364697 0.70202,-0.60535 0.20126,-0.343422 0.25697,-0.607072 0.27831,-1.317022 0.015,-0.500254 0.0333,-0.671229 0.0762,-0.714147 0.045,-0.04504 0.20108,-0.05643 0.77344,-0.05643 h 0.71702 l 0.027,-0.596754 c 0.0245,-0.539439 -0.0171,-1.559874 -0.0832,-2.042248 l -0.0243,-0.177387 -1.15891,-0.590329 c -0.75871,-0.386471 -1.20982,-0.639618 -1.30633,-0.733062 -0.22092,-0.213907 -0.31871,-0.446203 -0.31871,-0.757087 0,-0.25877 0.004,-0.268597 0.61739,-1.478589 l 0.61738,-1.218087 -0.1463,-0.261621 c -0.20564,-0.367722 -0.78134,-1.219973 -1.09068,-1.614629 -0.80017,-1.020845 -1.77901,-1.95406 -2.83826,-2.705964 -1.51708,-1.076886 -3.12904,-1.794832 -4.94936,-2.20438 l -0.42968,-0.09667 -0.97905,0.971747 c -1.06152,1.053609 -1.12731,1.100418 -1.54645,1.100418 -0.41917,0 -0.4849,-0.04678 -1.54679,-1.100754 l -0.97939,-0.972083 -0.58587,0.136415 c -2.32341,0.540987 -4.36201,1.632318 -6.2176,3.3285 -0.23991,0.219295 -0.50283,0.480039 -0.58427,0.579433 l -0.14809,0.180714 h 7.51446 c 7.22822,0 7.5291,0.0028 7.89891,0.07453 1.07318,0.208035 2.02548,0.726871 2.79693,1.523834 1.88081,1.942994 1.80423,4.591778 -0.18253,6.313535 -0.23295,0.201876 -0.87576,0.668863 -0.99168,0.720429 -0.006,0.0027 0.15336,0.170671 0.35408,0.37336 0.20556,0.207572 0.47929,0.540282 0.62676,0.761788 0.45158,0.678335 0.6346,1.096264 0.92574,2.113965 0.0439,0.153441 0.13865,0.364751 0.21056,0.469576 0.40695,0.593173 1.27086,0.853647 1.97128,0.594354 z m -8.72152,-6.305953 c 0.75129,-0.199717 1.1925,-0.630229 1.19348,-1.164544 9.9e-4,-0.535327 -0.42155,-0.948029 -1.18658,-1.15898 -0.23208,-0.06399 -0.47027,-0.07014 -2.71963,-0.07014 h -2.46528 l -0.0104,1.193102 c -0.006,0.656206 -0.001,1.216372 0.009,1.244813 0.0162,0.04232 0.46569,0.04897 2.47565,0.03662 2.14416,-0.01318 2.48721,-0.02344 2.70326,-0.08087 z m -15.3913,-0.861779 c 0.21919,-0.102284 0.46556,-0.352887 0.55812,-0.567701 0.0795,-0.184634 0.0795,-0.608917 0,-0.793551 -0.0837,-0.194309 -0.32387,-0.452124 -0.51632,-0.554317 -0.22586,-0.119936 -0.71818,-0.120178 -0.94358,-4.64e-4 -0.24904,0.132277 -0.47354,0.402763 -0.54861,0.661005 -0.24913,0.85696 0.64517,1.630796 1.45039,1.255028 z m 26.96152,-2.08e-4 c 0.40211,-0.188079 0.62143,-0.52907 0.6202,-0.964269 -8.5e-4,-0.301548 -0.0696,-0.479547 -0.27133,-0.702877 -0.23187,-0.256657 -0.41008,-0.332749 -0.77931,-0.332749 -0.36923,0 -0.54745,0.07609 -0.77932,0.332749 -0.20235,0.223981 -0.27061,0.401271 -0.27061,0.702877 0,0.302508 0.0682,0.478677 0.27328,0.706184 0.3092,0.342972 0.80086,0.448092 1.20709,0.258085 z M 418.1427,76.01651 c 0.36717,-0.199837 0.56882,-0.570754 0.53866,-0.990819 -0.0421,-0.586049 -0.463,-0.97968 -1.04762,-0.97968 -0.57536,0 -1.00138,0.390581 -1.04709,0.959971 -0.0681,0.848023 0.8086,1.417345 1.55605,1.010528 z"
           id="path24"
           inkscape:label="rust" /></g><use
         x="0"
         y="0"
         xlink:href="#g2"
         id="use2"
         transform="matrix(0.99511291,0,0,0.99511291,0.09827123,34.925)" /><use
         x="0"
         y="0"
         xlink:href="#use2"
         id="use3"
         transform="matrix(0,1.0049111,-1.0049111,0,75.313187,-0.25947533)" /><use
         x="0"
         y="0"
         xlink:href="#use3"
         id="use4"
         transform="translate(-34.925)" /><g
         id="g2"
         transform="matrix(0.2340679,0,0,0.2340679,-4.7092429,-5.5377832)"
         inkscape:label="legs"><path
           style="fill:none;stroke:#332f2f;stroke-width:2.5;stroke-linecap:square;stroke-linejoin:bevel;stroke-dasharray:none;stroke-opacity:1"
           d="m 49.479664,45.016275 c 0,-2.85845 0,-20.1074 0,-20.1074"
           id="path2"
           sodipodi:nodetypes="cc" /><path
           style="fill:none;stroke:#332f2f;stroke-width:2.5;stroke-linecap:square;stroke-linejoin:bevel;stroke-dasharray:none;stroke-opacity:1"
           d="m 57.55789,45.016275 c 0,-2.85845 0,-20.1074 0,-20.1074"
           id="path2-2"
           sodipodi:nodetypes="cc" /><path
           style="fill:none;stroke:#332f2f;stroke-width:2.5;stroke-linecap:square;stroke-linejoin:bevel;stroke-dasharray:none;stroke-opacity:1"
           d="m 65.636116,45.016275 c 0,-2.85845 0,-20.1074 0,-20.1074"
           id="path2-0"
           sodipodi:nodetypes="cc" /><path
           style="fill:none;stroke:#332f2f;stroke-width:2.5;stroke-linecap:square;stroke-linejoin:bevel;stroke-dasharray:none;stroke-opacity:1"
           d="m 73.714343,45.016275 c 0,-2.85845 0,-20.1074 0,-20.1074"
           id="path2-6"
           sodipodi:nodetypes="cc" /><path
           style="fill:none;stroke:#332f2f;stroke-width:2.5;stroke-linecap:square;stroke-linejoin:bevel;stroke-dasharray:none;stroke-opacity:1"
           d="m 81.792569,45.016275 c 0,-2.85845 0,-20.1074 0,-20.1074"
           id="path2-7"
           sodipodi:nodetypes="cc" /><path
           style="fill:none;stroke:#332f2f;stroke-width:2.5;stroke-linecap:square;stroke-linejoin:bevel;stroke-dasharray:none;stroke-opacity:1"
           d="m 89.870795,45.016275 c 0,-2.85845 0,-20.1074 0,-20.1074"
           id="path2-3"
           sodipodi:nodetypes="cc" /><path
           style="fill:none;stroke:#332f2f;stroke-width:2.5;stroke-linecap:square;stroke-linejoin:bevel;stroke-dasharray:none;stroke-opacity:1"
           d="m 97.949021,45.016275 c 0,-2.85845 0,-20.1074 0,-20.1074"
           id="path2-28"
           sodipodi:nodetypes="cc" /><path
           style="fill:none;stroke:#332f2f;stroke-width:2.5;stroke-linecap:square;stroke-linejoin:bevel;stroke-dasharray:none;stroke-opacity:1"
           d="m 106.02726,45.016275 c 0,-2.85845 0,-20.1074 0,-20.1074"
           id="path2-1"
           sodipodi:nodetypes="cc" /><path
           style="fill:none;stroke:#332f2f;stroke-width:2.5;stroke-linecap:square;stroke-linejoin:bevel;stroke-dasharray:none;stroke-opacity:1"
           d="m 114.10548,45.016275 c 0,-2.85845 0,-20.1074 0,-20.1074"
           id="path2-9"
           sodipodi:nodetypes="cc" /><path
           style="fill:none;stroke:#332f2f;stroke-width:2.5;stroke-linecap:square;stroke-linejoin:bevel;stroke-dasharray:none;stroke-opacity:1"
           d="m 122.18371,45.016275 c 0,-2.85845 0,-20.1074 0,-20.1074"
           id="path2-5"
           sodipodi:nodetypes="cc" /><path
           style="fill:none;stroke:#332f2f;stroke-width:2.5;stroke-linecap:square;stroke-linejoin:bevel;stroke-dasharray:none;stroke-opacity:1"
           d="m 130.26194,45.016275 c 0,-2.85845 0,-20.1074 0,-20.1074"
           id="path2-06"
           sodipodi:nodetypes="cc" /><path
           style="fill:none;stroke:#332f2f;stroke-width:2.5;stroke-linecap:square;stroke-linejoin:bevel;stroke-dasharray:none;stroke-opacity:1"
           d="m 138.34016,45.016275 c 0,-2.85845 0,-20.1074 0,-20.1074"
           id="path2-15"
           sodipodi:nodetypes="cc" /><path
           style="fill:none;stroke:#332f2f;stroke-width:2.5;stroke-linecap:square;stroke-linejoin:bevel;stroke-dasharray:none;stroke-opacity:1"
           d="m 146.41839,45.016275 c 0,-2.85845 0,-20.1074 0,-20.1074"
           id="path2-56"
           sodipodi:nodetypes="cc" /><path
           style="fill:none;stroke:#332f2f;stroke-width:2.5;stroke-linecap:square;stroke-linejoin:bevel;stroke-dasharray:none;stroke-opacity:1"
           d="m 154.49661,45.016275 c 0,-2.85845 0,-20.1074 0,-20.1074"
           id="path2-52"
           sodipodi:nodetypes="cc" /><path
           style="fill:none;stroke:#332f2f;stroke-width:2.5;stroke-linecap:square;stroke-linejoin:bevel;stroke-dasharray:none;stroke-opacity:1"
           d="m 162.57484,45.016275 c 0,-2.85845 0,-20.1074 0,-20.1074"
           id="path2-4"
           sodipodi:nodetypes="cc" /></g><rect
         style="fill:none;stroke:#000000;stroke-width:0.942092;stroke-linecap:round;stroke-dasharray:none;stroke-opacity:1"
         id="rect1"
         width="32.696484"
         height="32.696484"
         x="3.7600915"
         y="3.5993702"
         ry="2.9544137"
         inkscape:label="chip" /></g></g></svg>
